<svg id="visual" viewBox="0 0 900 600" width="1440" height="437" xmlns="http://www.w3.org/2000/svg" xmlns:xlink="http://www.w3.org/1999/xlink" version="1.1"><rect x="0" y="0" width="900" height="600" fill="#D6E1FF"></rect><path d="M0 183L30 201.8C60 220.7 120 258.3 180 278.5C240 298.7 300 301.3 360 278C420 254.7 480 205.3 540 185.5C600 165.7 660 175.3 720 193C780 210.7 840 236.3 870 249.2L900 262L900 0L870 0C840 0 780 0 720 0C660 0 600 0 540 0C480 0 420 0 360 0C300 0 240 0 180 0C120 0 60 0 30 0L0 0Z" fill="#0066FF" stroke-linecap="round" stroke-linejoin="miter"></path></svg>